<svg width="28" height="51" viewBox="0 0 28 51" fill="none" xmlns="http://www.w3.org/2000/svg">
<path d="M0.862238 19.7387C0.822257 19.3389 0.685179 18.4364 0.633775 17.3969C0.548101 16.3631 0.536678 15.1923 0.519543 14.2842C0.473851 10.0747 1.22207 5.80817 2.99265 1.99284C3.28394 1.40454 3.68947 0.365002 4.87176 0.884754C6.10546 1.42735 6.59094 2.34696 6.18542 3.28366C5.25444 5.58542 4.39199 8.02424 4.35201 10.543C4.27776 14.1927 4.29489 17.8424 5.10594 21.3893C5.47148 22.9771 5.94554 24.5307 6.49956 26.0557C7.07072 27.575 7.77324 29.0428 8.58428 30.4479C10.1607 33.0695 12.2226 35.3313 14.353 37.4617C16.175 39.3122 18.0255 41.2142 20.2245 42.6992C20.4815 42.8706 20.8013 43.0077 21.1269 43.139C21.4582 43.259 21.8009 43.3789 22.0922 43.5502C22.5662 43.8472 23.4115 44.2413 23.8685 44.5897C24.0626 44.7439 24.274 44.8867 24.5081 44.9381C25.5819 45.1494 25.6904 45.6977 24.8109 46.9314C24.6167 47.1999 24.5538 47.634 24.2054 47.7311C24.1883 47.7368 24.1597 47.7425 24.1483 47.7482C23.5829 47.9995 23.1202 47.9367 22.7033 47.7711C22.2921 47.5883 21.9322 47.3027 21.521 47.12C17.5 45.2466 13.8789 42.5622 10.8004 39.358C8.91556 37.3818 7.32203 35.1599 5.78561 32.8981C5.35153 32.287 4.83749 31.7044 4.58618 30.9791L4.5919 30.9905C4.18066 30.3051 3.78656 29.6083 3.45529 28.8772C2.28442 26.0899 1.31916 23.0514 0.987893 20.167C0.959335 20.0471 0.885084 19.9043 0.862238 19.7387Z" fill="black"/>
<path d="M22.3381 43.6245C22.2296 43.3103 21.8869 42.1852 21.6128 41.4884C20.9788 39.8663 20.3848 38.227 20.1734 36.4564C20.1392 36.1766 19.9907 35.7425 21.2072 35.3084C22.4752 34.8572 23.3148 34.8801 23.429 35.337C23.7089 36.4565 23.8117 37.6445 24.4229 38.6383C25.3139 40.089 25.7137 41.7168 26.3534 43.2589C26.6047 43.8644 26.8274 44.4755 27.0502 45.0866L27.1815 45.4579C27.2272 45.6007 27.2729 45.7377 27.3129 45.8805C27.3929 46.1661 27.45 46.4517 27.4728 46.7315C27.53 47.297 27.4557 47.8567 27.2444 48.3765C27.1073 48.6735 26.9531 48.9705 26.7303 49.2161C26.3419 49.6787 25.8336 50.0272 25.251 50.267C24.6799 50.5069 23.9774 50.6211 23.3548 50.6668C23.1378 50.6897 22.8922 50.6954 22.7208 50.7068L22.1896 50.7296C21.8355 50.7411 21.4871 50.7353 21.133 50.7125C19.9221 50.6382 18.7284 50.2442 17.5233 50.0614C17.2377 50.0157 16.8836 50.2385 16.5694 50.2042C16.3124 50.1757 15.8783 50.1414 15.6327 50.0157C15.5242 49.9643 15.4157 49.8957 15.3015 49.9357C14.7931 50.1299 14.6846 49.6559 14.9302 48.188C14.9816 47.8682 14.9645 47.4398 15.0959 47.2227C15.1016 47.2113 15.113 47.1942 15.1187 47.1828C15.5299 46.3089 15.8841 46.743 16.261 46.743C18.1173 46.7373 19.9678 46.8229 21.8241 46.8686L22.6751 46.9029C22.9664 46.9143 23.2348 46.9315 23.3948 46.9201C23.4976 46.9086 23.6175 46.8572 23.6118 46.743C23.6175 46.6744 23.4519 46.543 23.5433 46.5773L23.5547 46.583C23.5147 46.5316 23.4176 46.5031 23.4176 46.5031L23.4176 46.4974L23.4119 46.4917C23.4062 46.4746 23.4233 46.5317 23.3834 46.4232L23.0349 45.5436C22.8065 44.9553 22.5952 44.3669 22.4467 43.7901C22.4352 43.7272 22.361 43.6873 22.3381 43.6245Z" fill="black"/>
</svg>
