<svg width="187" height="83" viewBox="0 0 187 83" fill="none" xmlns="http://www.w3.org/2000/svg">
<g filter="url(#filter0_d_13_3)">
<path d="M35.9638 0L23.0111 13.3705H10.6852L15.2813 19.6379H4C4 19.6379 4.62674 58.078 35.9638 75V0Z" fill="#219BFF"/>
<path d="M35.9629 0L48.9155 13.3705H61.2414L56.6453 19.6379H67.9267C67.9267 19.6379 67.2999 58.078 35.9629 75V0Z" fill="#008CFF"/>
<path d="M26.8268 45.2155C31.2984 44.2779 34.6161 42.4748 36.7798 39.8062C39.0156 37.1377 40.1335 34.5773 40.1335 32.1252C40.1335 29.6009 39.4483 27.906 38.078 27.0405C36.7798 26.1029 35.3373 25.6341 33.7506 25.6341C30.3608 25.6341 27.3677 27.5454 24.7713 31.3679C22.247 35.1183 20.9849 39.6259 20.9849 44.8909C20.9849 50.0837 22.211 53.9784 24.6631 56.5748C27.1874 59.0991 30.2887 60.3612 33.967 60.3612C39.3762 60.3612 44.569 58.486 49.5455 54.7357C54.522 50.9853 58.5609 46.0809 61.6621 40.0226C63.2488 41.5372 64.6913 43.4124 65.9895 45.6482C63.6094 51.0574 59.3903 56.3584 53.3319 61.5513C50.3028 64.0756 46.6967 66.1311 42.5135 67.7178C38.4025 69.3045 34.1473 70.0978 29.7478 70.0978C22.5355 70.0978 16.8378 67.8981 12.6547 63.4986C8.18307 58.7385 5.94727 52.6441 5.94727 45.2155C5.94727 37.7868 8.72399 31.2958 14.2774 25.7423C19.903 20.1888 26.6104 17.4121 34.3997 17.4121C39.9532 17.4121 44.4608 18.6382 47.9227 21.0904C51.3846 23.4704 53.1516 26.716 53.2238 30.827C53.2238 36.3804 50.988 40.8881 46.5163 44.35C42.1169 47.8119 36.0585 50.228 28.3414 51.5983L26.8268 45.2155Z" fill="white"/>
</g>
<path d="M174.04 25.6159H174.001L170.693 35.8897H177.27L174.04 25.6159ZM180.461 45.6576L178.826 40.3261H169.292L167.463 45.6576H161.742L170.965 19.8174H177.231L186.337 45.6576H180.461Z" fill="#008CFF"/>
<path d="M145.277 24.2927V31.1808H152.048C153.501 31.1808 154.526 30.8565 155.123 30.2079C155.72 29.5593 156.018 28.7421 156.018 27.7562C156.018 26.7444 155.72 25.9142 155.123 25.2656C154.552 24.617 153.592 24.2927 152.243 24.2927H145.277ZM155.084 45.6576V39.0029C155.084 37.7576 154.799 36.8755 154.228 36.3567C153.657 35.8118 152.593 35.5394 151.037 35.5394H145.277V45.6576H140.023V19.8174H153.138C154.332 19.8174 155.408 20.012 156.368 20.4011C157.354 20.7643 158.197 21.2832 158.898 21.9578C159.598 22.6064 160.13 23.3976 160.493 24.3316C160.882 25.2397 161.077 26.2255 161.077 27.2892C161.077 28.6902 160.74 29.9355 160.065 31.0252C159.417 32.0889 158.47 32.8412 157.224 33.2823C158.366 33.6455 159.17 34.2033 159.637 34.9557C160.13 35.7081 160.376 36.8366 160.376 38.3414V45.6576H155.084Z" fill="#008CFF"/>
<path d="M125.52 45.6576V24.3316H117.736V19.8174H138.751V24.3316H130.929V45.6576H125.52Z" fill="#008CFF"/>
<path d="M111.014 45.6576L106.072 36.7847L100.857 45.6576H94.5527L102.92 32.4651L95.0197 19.8174H101.402L106.072 28.1843L110.781 19.8174H117.046L109.185 32.2316L117.591 45.6576H111.014Z" fill="#008CFF"/>
<path d="M74.5801 45.6576V19.8174H93.5711V24.3316H79.8337V29.8577H92.4814V34.4109H79.8337V41.0655H94.1937V45.6576H74.5801Z" fill="#008CFF"/>
<path d="M178.164 63.2149V57.5301L172.955 48.1763H176.624L179.795 54.2914L182.717 48.1763H186.34L181.312 57.5754V63.2149H178.164Z" fill="#008CFF"/>
<path d="M164.967 63.2149V50.8035H160.438V48.1763H172.668V50.8035H168.115V63.2149H164.967Z" fill="#008CFF"/>
<path d="M156.645 63.2149V48.1763H159.793V63.2149H156.645Z" fill="#008CFF"/>
<path d="M152.397 52.6156C152.321 51.8456 152.042 51.2718 151.559 50.8943C151.076 50.5168 150.359 50.3281 149.407 50.3281C148.517 50.3281 147.845 50.4791 147.392 50.7811C146.939 51.0831 146.712 51.5209 146.712 52.0947C146.712 52.5779 146.886 52.9629 147.233 53.2498C147.595 53.5367 148.199 53.7858 149.045 53.9972C149.906 54.2086 150.721 54.4199 151.491 54.6313C152.276 54.8276 152.948 55.0541 153.507 55.3108C153.839 55.4618 154.148 55.6354 154.435 55.8317C154.722 56.028 154.971 56.2696 155.183 56.5565C155.394 56.8433 155.56 57.1831 155.681 57.5756C155.802 57.9682 155.862 58.4287 155.862 58.9572C155.862 59.7877 155.711 60.5049 155.409 61.1088C155.122 61.6977 154.707 62.1884 154.164 62.581C153.635 62.9736 153.001 63.2604 152.261 63.4416C151.536 63.6379 150.736 63.7361 149.86 63.7361C148.924 63.7361 148.071 63.6304 147.301 63.419C146.531 63.2227 145.867 62.9132 145.308 62.4904C144.749 62.0676 144.311 61.5467 143.994 60.9276C143.677 60.2935 143.511 59.5536 143.496 58.7081H146.531C146.561 59.4781 146.871 60.0896 147.46 60.5426C148.064 60.9805 148.871 61.1994 149.883 61.1994C150.819 61.1994 151.536 61.0182 152.035 60.6558C152.548 60.2784 152.805 59.7499 152.805 59.0704C152.805 58.844 152.767 58.6401 152.691 58.4589C152.631 58.2777 152.51 58.1117 152.329 57.9607C152.163 57.7946 151.929 57.6511 151.627 57.5303C151.325 57.3945 150.94 57.2737 150.472 57.168C149.536 56.9566 148.743 56.7754 148.094 56.6244C147.46 56.4583 146.878 56.2545 146.35 56.0129C145.534 55.6505 144.908 55.1824 144.47 54.6087C144.047 54.0198 143.836 53.2498 143.836 52.2985C143.836 51.6191 143.949 51 144.176 50.4413C144.402 49.8676 144.742 49.3769 145.195 48.9692C145.663 48.5615 146.237 48.2444 146.916 48.018C147.611 47.7915 148.418 47.6782 149.339 47.6782C150.291 47.6782 151.136 47.799 151.876 48.0406C152.616 48.2822 153.235 48.6219 153.733 49.0598C154.247 49.4977 154.639 50.0186 154.911 50.6225C155.198 51.2265 155.356 51.8909 155.387 52.6156H152.397Z" fill="#008CFF"/>
<path d="M134.003 50.7809V54.7896H137.944C138.789 54.7896 139.386 54.6009 139.733 54.2234C140.08 53.846 140.254 53.3703 140.254 52.7966C140.254 52.2077 140.08 51.7245 139.733 51.3471C139.401 50.9696 138.842 50.7809 138.057 50.7809H134.003ZM139.71 63.2149V59.342C139.71 58.6173 139.544 58.1039 139.212 57.8019C138.88 57.4848 138.261 57.3263 137.355 57.3263H134.003V63.2149H130.945V48.1763H138.578C139.272 48.1763 139.899 48.2895 140.458 48.516C141.031 48.7274 141.522 49.0294 141.93 49.4219C142.338 49.7994 142.647 50.2599 142.858 50.8035C143.085 51.332 143.198 51.9057 143.198 52.5248C143.198 53.3401 143.002 54.0649 142.609 54.6991C142.232 55.3181 141.681 55.756 140.956 56.0127C141.62 56.2241 142.088 56.5487 142.36 56.9866C142.647 57.4244 142.791 58.0812 142.791 58.957V63.2149H139.71Z" fill="#008CFF"/>
<path d="M118.889 63.2149V48.1763H129.941V50.8035H121.946V54.0196H129.307V56.6695H121.946V60.5424H130.304V63.2149H118.889Z" fill="#008CFF"/>
<path d="M110.106 63.2149L105.01 48.1763H108.362L111.646 58.7305L114.907 48.1763H118.169L113.073 63.2149H110.106Z" fill="#008CFF"/>
<path d="M101.24 63.2149V48.1763H104.388V63.2149H101.24Z" fill="#008CFF"/>
<path d="M97.2132 63.2149L90.781 53.1137V63.2149H87.8594V48.1763H91.1887L97.1679 57.8472V48.1763H100.112V63.2149H97.2132Z" fill="#008CFF"/>
<path d="M83.4907 48.1763H86.7068V58.2096C86.7068 60.0366 86.1708 61.4181 85.0988 62.3543C84.0267 63.2753 82.5017 63.7358 80.5238 63.7358C78.6968 63.7358 77.2473 63.298 76.1752 62.4222C75.1183 61.5465 74.5898 60.2027 74.5898 58.3908V48.1763H77.7833V58.0963C77.7833 59.0325 78.0173 59.7723 78.4854 60.3159C78.9535 60.8595 79.6178 61.1312 80.4785 61.1312C82.4866 61.1312 83.4907 60.1574 83.4907 58.2096V48.1763Z" fill="#008CFF"/>
<defs>
<filter id="filter0_d_13_3" x="0.371316" y="0" width="71.1831" height="82.2574" filterUnits="userSpaceOnUse" color-interpolation-filters="sRGB">
<feFlood flood-opacity="0" result="BackgroundImageFix"/>
<feColorMatrix in="SourceAlpha" type="matrix" values="0 0 0 0 0 0 0 0 0 0 0 0 0 0 0 0 0 0 127 0" result="hardAlpha"/>
<feOffset dy="3.62868"/>
<feGaussianBlur stdDeviation="1.81434"/>
<feComposite in2="hardAlpha" operator="out"/>
<feColorMatrix type="matrix" values="0 0 0 0 0 0 0 0 0 0.54902 0 0 0 0 1 0 0 0 0.25 0"/>
<feBlend mode="normal" in2="BackgroundImageFix" result="effect1_dropShadow_13_3"/>
<feBlend mode="normal" in="SourceGraphic" in2="effect1_dropShadow_13_3" result="shape"/>
</filter>
</defs>
</svg>
