<svg width="426" height="230" viewBox="0 0 426 230" fill="none" xmlns="http://www.w3.org/2000/svg">
<g filter="url(#filter0_d_40_306)">
<path d="M103.478 27L75.729 55.6446H49.3223L59.1689 69.0717H35C35 69.0717 36.3427 151.425 103.478 187.678V27Z" fill="white"/>
<path d="M103.477 27L131.226 55.6446H157.633L147.786 69.0717H171.955C171.955 69.0717 170.612 151.425 103.477 187.678V27Z" fill="#F2F2F2"/>
<path d="M83.9037 123.869C93.4836 121.86 100.591 117.997 105.227 112.28C110.017 106.563 112.412 101.078 112.412 95.8246C112.412 90.4166 110.944 86.7855 108.008 84.9314C105.227 82.9227 102.136 81.9183 98.7371 81.9183C91.4749 81.9183 85.0626 86.013 79.5001 94.2022C74.0921 102.237 71.3881 111.894 71.3881 123.174C71.3881 134.299 74.0148 142.642 79.2683 148.205C84.6763 153.613 91.3204 156.317 99.2006 156.317C110.789 156.317 121.914 152.3 132.576 144.265C143.237 136.23 151.89 125.723 158.534 112.744C161.933 115.989 165.024 120.006 167.805 124.796C162.706 136.385 153.667 147.741 140.688 158.866C134.198 164.274 126.472 168.678 117.511 172.077C108.703 175.477 99.5869 177.176 90.1616 177.176C74.7101 177.176 62.5035 172.464 53.5417 163.038C43.9618 152.84 39.1719 139.784 39.1719 123.869C39.1719 107.954 45.1207 94.0477 57.0183 82.1501C69.0704 70.2525 83.4402 64.3037 100.128 64.3037C112.025 64.3037 121.682 66.9304 129.099 72.1839C136.516 77.2829 140.301 84.236 140.456 93.0434C140.456 104.941 135.666 114.598 126.086 122.015C116.661 129.431 103.682 134.608 87.1485 137.543L83.9037 123.869Z" fill="#008CFF"/>
</g>
<path d="M399.291 81.8786H399.208L392.121 103.889H406.211L399.291 81.8786ZM413.048 124.815L409.546 113.393H389.12L385.201 124.815H372.945L392.705 69.4561H406.128L425.637 124.815H413.048Z" fill="white"/>
<path d="M337.669 79.0439V93.8008H352.176C355.289 93.8008 357.484 93.1061 358.763 91.7165C360.041 90.327 360.68 88.5762 360.68 86.4641C360.68 84.2964 360.041 82.5178 358.763 81.1282C357.54 79.7387 355.483 79.0439 352.593 79.0439H337.669ZM358.679 124.815V110.559C358.679 107.891 358.068 106.001 356.845 104.889C355.622 103.722 353.343 103.139 350.009 103.139H337.669V124.815H326.414V69.4561H354.511C357.067 69.4561 359.374 69.8729 361.431 70.7066C363.543 71.4848 365.349 72.5964 366.85 74.0415C368.35 75.4311 369.49 77.1263 370.268 79.1273C371.102 81.0726 371.519 83.1847 371.519 85.4636C371.519 88.465 370.796 91.1329 369.351 93.4674C367.961 95.7462 365.933 97.3581 363.265 98.303C365.71 99.0811 367.433 100.276 368.434 101.888C369.49 103.5 370.018 105.918 370.018 109.141V124.815H358.679Z" fill="white"/>
<path d="M295.341 124.815V79.1273H278.666V69.4561H323.687V79.1273H306.929V124.815H295.341Z" fill="white"/>
<path d="M264.265 124.815L253.676 105.807L242.504 124.815H228.998L246.923 96.5521L229.999 69.4561H243.672L253.676 87.3812L263.764 69.4561H277.187L260.346 96.0519L278.355 124.815H264.265Z" fill="white"/>
<path d="M186.209 124.815V69.4561H226.895V79.1273H197.464V90.9662H224.56V100.721H197.464V114.977H228.229V124.815H186.209Z" fill="white"/>
<path d="M408.125 162.431V150.252L396.965 130.213H404.825L411.618 143.314L417.878 130.213H425.641L414.869 150.349V162.431H408.125Z" fill="white"/>
<path d="M379.851 162.431V135.841H370.146V130.213H396.348V135.841H386.595V162.431H379.851Z" fill="white"/>
<path d="M362.021 162.431V130.213H368.766V162.431H362.021Z" fill="#F2F2F2"/>
<path d="M352.921 139.723C352.759 138.074 352.16 136.844 351.125 136.036C350.09 135.227 348.554 134.823 346.516 134.823C344.607 134.823 343.168 135.146 342.197 135.793C341.227 136.44 340.742 137.378 340.742 138.607C340.742 139.642 341.114 140.467 341.858 141.082C342.634 141.696 343.928 142.23 345.739 142.683C347.583 143.136 349.33 143.589 350.98 144.042C352.662 144.462 354.101 144.947 355.298 145.497C356.01 145.821 356.673 146.193 357.288 146.613C357.902 147.034 358.436 147.551 358.889 148.166C359.342 148.781 359.697 149.508 359.956 150.35C360.215 151.191 360.344 152.177 360.344 153.309C360.344 155.088 360.021 156.625 359.374 157.919C358.759 159.18 357.87 160.232 356.705 161.073C355.573 161.914 354.215 162.528 352.629 162.917C351.077 163.337 349.362 163.547 347.486 163.547C345.481 163.547 343.653 163.321 342.003 162.868C340.353 162.448 338.93 161.784 337.733 160.879C336.536 159.973 335.598 158.857 334.919 157.531C334.24 156.172 333.884 154.587 333.852 152.776H340.353C340.418 154.425 341.081 155.735 342.343 156.706C343.637 157.644 345.367 158.113 347.535 158.113C349.54 158.113 351.077 157.725 352.144 156.948C353.244 156.14 353.794 155.008 353.794 153.552C353.794 153.067 353.713 152.63 353.551 152.242C353.422 151.854 353.163 151.498 352.775 151.174C352.419 150.819 351.918 150.511 351.271 150.252C350.624 149.961 349.799 149.703 348.796 149.476C346.791 149.023 345.092 148.635 343.701 148.312C342.343 147.956 341.097 147.519 339.965 147.002C338.219 146.225 336.876 145.222 335.938 143.993C335.032 142.732 334.579 141.082 334.579 139.044C334.579 137.588 334.822 136.262 335.307 135.065C335.792 133.836 336.52 132.785 337.491 131.911C338.493 131.038 339.723 130.359 341.178 129.873C342.666 129.388 344.397 129.146 346.37 129.146C348.408 129.146 350.22 129.404 351.805 129.922C353.39 130.439 354.716 131.167 355.783 132.105C356.883 133.043 357.724 134.159 358.307 135.453C358.921 136.747 359.261 138.171 359.325 139.723H352.921Z" fill="white"/>
<path d="M313.513 135.793V144.381H321.956C323.768 144.381 325.045 143.977 325.789 143.168C326.533 142.359 326.905 141.341 326.905 140.111C326.905 138.85 326.533 137.815 325.789 137.006C325.078 136.197 323.881 135.793 322.199 135.793H313.513ZM325.741 162.431V154.134C325.741 152.581 325.385 151.482 324.673 150.835C323.962 150.155 322.635 149.816 320.695 149.816H313.513V162.431H306.963V130.213H323.315C324.803 130.213 326.145 130.455 327.342 130.941C328.571 131.394 329.623 132.041 330.496 132.882C331.369 133.69 332.032 134.677 332.485 135.841C332.971 136.974 333.213 138.203 333.213 139.529C333.213 141.276 332.793 142.829 331.952 144.187C331.143 145.513 329.962 146.451 328.409 147.001C329.833 147.454 330.836 148.15 331.418 149.088C332.032 150.026 332.34 151.433 332.34 153.309V162.431H325.741Z" fill="white"/>
<path d="M281.135 162.431V130.213H304.813V135.841H287.685V142.731H303.455V148.409H287.685V156.706H305.59V162.431H281.135Z" fill="white"/>
<path d="M262.32 162.431L251.402 130.213H258.584L265.619 152.824L272.606 130.213H279.593L268.676 162.431H262.32Z" fill="white"/>
<path d="M243.326 162.431V130.213H250.071V162.431H243.326Z" fill="white"/>
<path d="M234.698 162.431L220.918 140.791V162.431H214.658V130.213H221.791L234.601 150.932V130.213H240.908V162.431H234.698Z" fill="white"/>
<path d="M205.298 130.213H212.188V151.708C212.188 155.622 211.039 158.582 208.743 160.588C206.446 162.561 203.179 163.547 198.941 163.547C195.027 163.547 191.922 162.609 189.625 160.733C187.361 158.857 186.229 155.978 186.229 152.096V130.213H193.07V151.465C193.07 153.471 193.571 155.056 194.574 156.221C195.577 157.385 197 157.967 198.844 157.967C203.146 157.967 205.298 155.881 205.298 151.708V130.213Z" fill="white"/>
<defs>
<filter id="filter0_d_40_306" x="0.50774" y="0.281746" width="205.94" height="229.662" filterUnits="userSpaceOnUse" color-interpolation-filters="sRGB">
<feFlood flood-opacity="0" result="BackgroundImageFix"/>
<feColorMatrix in="SourceAlpha" type="matrix" values="0 0 0 0 0 0 0 0 0 0 0 0 0 0 0 0 0 0 127 0" result="hardAlpha"/>
<feOffset dy="7.77401"/>
<feGaussianBlur stdDeviation="17.2461"/>
<feComposite in2="hardAlpha" operator="out"/>
<feColorMatrix type="matrix" values="0 0 0 0 1 0 0 0 0 1 0 0 0 0 1 0 0 0 0.5 0"/>
<feBlend mode="normal" in2="BackgroundImageFix" result="effect1_dropShadow_40_306"/>
<feBlend mode="normal" in="SourceGraphic" in2="effect1_dropShadow_40_306" result="shape"/>
</filter>
</defs>
</svg>
